<?xml version="1.0" encoding="utf-8"?>
<!DOCTYPE svg PUBLIC "-//W3C//DTD SVG 1.1//EN" "http://www.w3.org/Graphics/SVG/1.1/DTD/svg11.dtd">
<svg version="1.1" id="Level1" xmlns="http://www.w3.org/2000/svg" xmlns:xlink="http://www.w3.org/1999/xlink" x="0px" y="0px"
	 width="256px" height="256px" viewBox="0 0 256 256" enable-background="new 0 0 256 256" xml:space="preserve">
<g id="Background">
	<rect fill="#F39200" width="256" height="256.001"/>
</g>
<g id="Cloud">
	<path fill="#FFFFFF" d="M129.073,193.358H63.61c-14.864,0-26.956-12.096-26.956-26.955c0-10.771,6.377-20.097,15.521-24.367
		c-0.057-0.843-0.119-1.746-0.119-2.589c0-17.025,13.78-30.806,30.806-30.806c12.876,0,23.885,7.886,28.522,19.131
		c2.644-2.342,6.135-3.728,9.985-3.728c8.482,0,15.403,6.921,15.403,15.402c0,3.07-0.903,5.895-2.464,8.307
		c10.227,2.403,17.867,11.553,17.867,22.5C152.178,183.008,141.827,193.358,129.073,193.358z"/>
</g>
<g id="Search">
	<path fill="#FFFFFF" d="M208.178,142.059c-2.078,0-4.095-0.855-5.5-2.322l-20.961-20.9c-7.15,4.95-15.706,7.578-24.384,7.578
		c-23.772,0-43.022-19.25-43.022-43.022s19.25-43.022,43.022-43.022s43.022,19.25,43.022,43.022c0,8.678-2.628,17.233-7.578,24.384
		l20.962,20.961c1.405,1.405,2.261,3.422,2.261,5.5C216,138.514,212.455,142.059,208.178,142.059z M157.333,56.014
		c-15.095,0-27.378,12.283-27.378,27.378s12.283,27.378,27.378,27.378s27.378-12.283,27.378-27.378S172.428,56.014,157.333,56.014z"
		/>
</g>
</svg>
